# xmcd
#
# Track frame offsets: 
#        150
#        15718
#        30924
#        55375
#        72215
#        91298
#        117429
#        133206
#        152014
#        171275
#        191675
#        209505
#        226543
#        242389
#        256659
#        271767
#        288182
#        302146
#
# Disc length: 4271 seconds
#
# Revision: 0
# Processed by: cddbd v1.5.2PL0 Copyright (c) Steve Scherf et al.
# Submitted via: ExactAudioCopy v0.95b4
#
DISCID=ed10ad12
DTITLE=Various Artist - Country Heat 2006
DYEAR=2006
DGENRE=
TTITLE0=Gretchen Wilson - Homewrecker
TTITLE1=Alan Jackson - Monday Morning Church
TTITLE2=Kenny Chesey - Anything But Mine
TTITLE3=Dierks Bentley - Lots of Leavin' Left to Do
TTITLE4=Brooks and Dunn - It's Getting Better All the Time
TTITLE5=Martina McBride - God's Will
TTITLE6=Brad Paisley - Mud on the Tires
TTITLE7=Montgomery Gentry - Gone
TTITLE8=Carolyn Dawn Johnson - Dress Rehearsal
TTITLE9=Lonestar - Class Reunion (That Used to Be)
TTITLE10=Aaron Lines - Waitin' on the Wonderful
TTITLE11=Carrie Underwood - Inside Your Heaven
TTITLE12=Paul Brandt - Rich Man
TTITLE13=Aaron Pritshett - Lucky for Me
TTITLE14=The Poverty Plainsmen - Sister Golden hair
TTITLE15=Dean Tuftin - Wide Open Highway
TTITLE16=Keith Anderon - Pickin' Wildflowers
TTITLE17=Blaine Larson - How Do You Get that Lonely
EXTD=
EXTT0=
EXTT1=
EXTT2=
EXTT3=
EXTT4=
EXTT5=
EXTT6=
EXTT7=
EXTT8=
EXTT9=
EXTT10=
EXTT11=
EXTT12=
EXTT13=
EXTT14=
EXTT15=
EXTT16=
EXTT17=
PLAYORDER=
